<?xml version="1.0" encoding="utf-8"?>
<!-- Generator: Adobe Illustrator 19.1.0, SVG Export Plug-In . SVG Version: 6.00 Build 0)  -->
<svg version="1.1" baseProfile="tiny" id="Layer_1" xmlns="http://www.w3.org/2000/svg" xmlns:xlink="http://www.w3.org/1999/xlink"
	 x="0px" y="0px" viewBox="0 0 345 125" xml:space="preserve">
<path fill="#852064" d="M269.14,18.01l27.13-4.81v103.16h-27.13V18.01z M308.77,18.01v98.34h27.16V13.2L308.77,18.01z
	 M230.48,116.36h27.16V40.91h-27.16V116.36z M51.06,51.58c-3.43-0.22-11.38-0.73-11.38-7.81c0-8.55,11.44-8.55,15.73-8.55
	c7.54,0,17.31,2.21,24.29,4.27c0,0,3.9,1.36,7.21,2.75l0.31,0.09v-0.31V18.93l-0.42-0.12c-8.24-2.85-17.81-5.6-35.56-5.6
	c-30.61,0-41.45,17.65-41.45,32.78c0,8.72,3.77,29.23,38.82,31.6c2.97,0.18,10.86,0.63,10.86,7.94c0,6.04-6.45,9.61-17.31,9.61
	c-11.9,0-23.44-3.01-30.46-5.86v24.1c10.5,2.72,22.33,4.09,36.2,4.09c29.92,0,43.33-16.7,43.33-33.25
	C91.21,65.45,76.22,53.25,51.06,51.58z M215.18,39.81c-25.09,0.8-37.83,11.94-37.83,34.1v42.45h27.38V81.74
	c0-13.26,1.76-18.95,17.65-19.5V40.2C219.7,39.63,215.18,39.81,215.18,39.81z M141.52,40.82c-0.6,1.51-4.95,13.66-15.47,26.26V13.2
	l-28.02,5.49v97.67h28.02V86.17c8.12,12.05,12.12,30.19,12.12,30.19h33.56c-3.32-13.66-17.84-38.86-17.84-38.86
	c13.03-16.36,18.76-33.79,19.67-36.68H141.52z M244.05,33.67c7.4,0,13.39-5.93,13.39-13.24s-5.99-13.25-13.39-13.25
	c-7.38,0-13.37,5.93-13.37,13.25S236.67,33.67,244.05,33.67z"/>
</svg>
